Allah Ke Banday 2010 DvDRScr x264 400Mb - Henry Kharay


EXCLUSIVE DHAMAKA FROM Henry


-----------------------------------------------------------------------
Format                           : Matroska
File size                        : 398 MiB
Duration                         : 2h 2mn
Overall bit rate                 : 453 Kbps
Encoded date                     : UTC 2010-11-30 05:34:12
Writing application              : mkvmerge v4.0.0 ('The Stars were mine') built on Jun  6 2010 16:18:42
Writing library                  : libebml v1.0.0 + libmatroska v1.0.0
---------------------------------------------------------------------------
Video
ID                               : 1
Format                           : AVC
Format/Info                      : Advanced Video Codec
Format profile                   : High@L2.1
Format settings, CABAC           : Yes
Format settings, ReFrames        : 4 frames
Muxing mode                      : Container profile=Unknown@2.1
Codec ID                         : V_MPEG4/ISO/AVC
Duration                         : 2h 2mn
Bit rate                         : 351 Kbps
Width                            : 640 pixels
Height                           : 288 pixels
Display aspect ratio             : 2.222
Frame rate                       : 25.000 fps
Color space                      : YUV
Chroma subsampling               : 4:2:0
Bit depth                        : 8 bits
Scan type                        : Progressive
Bits/(Pixel*Frame)               : 0.076
Stream size                      : 302 MiB (76%)
Writing library                  : x264 [/COLOR]
---------------------------------------------------------------------
Audio
ID                               : 2
Format                           : MPEG Audio
Format version                   : Version 2
Format profile                   : Layer 3
Mode                             : Joint stereo
Mode extension                   : MS Stereo
Codec ID                         : A_MPEG/L3
Codec ID/Hint                    : MP3
Duration                         : 2h 2mn
Bit rate mode                    : Variable
Bit rate                         : 100.0 Kbps
Nominal bit rate                 : 128 Kbps
Channel(s)                       : 2 channels
Sampling rate                    : 24.0 KHz
Stream size                      : 87.8 MiB (22%)
Writing library                  : LAME3.98r
Encoding settings                : -m j -V 4 -q 2 -lowpass 12 --abr 128

Screens.
[IMG]http://img697.imageshack.us/img697/3196/screensnr.png[/IMG]
[IMG]http://bapugunda.com/images.php?i=3916_7.png[/IMG]
[IMG]http://bapugunda.com/images.php?i=3915_9.png[/IMG]
[IMG]http://bapugunda.com/images.php?i=3918_11.png[/IMG]
[IMG]http://bapugunda.com/images.php?i=3917_10.png[/IMG]
[IMG]http://bapugunda.com/images.php?i=3911_4.png[/IMG]
[IMG]http://bapugunda.com/images.php?i=3912_5.png[/IMG]
[IMG]http://bapugunda.com/images.php?i=3909_2.png[/IMG]

Please Guys keep Seeding
thnx